<svg width="16" height="10" viewBox="0 0 16 10" fill="none" xmlns="http://www.w3.org/2000/svg">
<mask id="path-1-inside-1_102_9" fill="white">
<path fill-rule="evenodd" clip-rule="evenodd" d="M1.84615 0L0 1.84615L7.99999 9.84614L16 1.84615L14.1538 0L7.99999 6.15384L1.84615 0Z"/>
</mask>
<path d="M0 1.84615L-0.353553 1.4926L-0.707107 1.84615L-0.353553 2.1997L0 1.84615ZM1.84615 0L2.1997 -0.353553L1.84615 -0.707107L1.4926 -0.353553L1.84615 0ZM7.99999 9.84614L7.64643 10.1997L7.99999 10.5532L8.35354 10.1997L7.99999 9.84614ZM16 1.84615L16.3535 2.1997L16.7071 1.84615L16.3535 1.4926L16 1.84615ZM14.1538 0L14.5074 -0.353553L14.1538 -0.707107L13.8003 -0.353553L14.1538 0ZM7.99999 6.15384L7.64643 6.50739L7.99999 6.86095L8.35354 6.50739L7.99999 6.15384ZM0.353553 2.1997L2.1997 0.353553L1.4926 -0.353553L-0.353553 1.4926L0.353553 2.1997ZM8.35354 9.49258L0.353553 1.4926L-0.353553 2.1997L7.64643 10.1997L8.35354 9.49258ZM15.6464 1.4926L7.64643 9.49258L8.35354 10.1997L16.3535 2.1997L15.6464 1.4926ZM13.8003 0.353553L15.6464 2.1997L16.3535 1.4926L14.5074 -0.353553L13.8003 0.353553ZM13.8003 -0.353553L7.64643 5.80029L8.35354 6.50739L14.5074 0.353553L13.8003 -0.353553ZM8.35354 5.80029L2.1997 -0.353553L1.4926 0.353553L7.64643 6.50739L8.35354 5.80029Z" fill="white" mask="url(#path-1-inside-1_102_9)"/>
</svg>
