<svg width="104" height="10" fill="none" xmlns="http://www.w3.org/2000/svg"><path d="M7.86 2.52H5.69L2.35 8.05V2.52H0v6.5h4.45l3.4-5.66v5.66h2.36v-6.5H7.86ZM90.26 2.52H88.1l-3.33 5.53V2.52h-2.35v6.5h4.45l3.4-5.66v5.66h2.36v-6.5h-2.35ZM20.15 5.77h-5.5V2.52H12.3v6.5h2.35V7.23h5.5v1.8h2.36v-6.5h-2.36v3.24ZM32.74 2.52h-4.6L25.34 7.2h-1.89v1.82H36.6l1.09-1.81h-2.11l-2.83-4.69Zm-3.01 1.82h1.44l1.72 2.86H28l1.73-2.86ZM51.5 2.52h-2.68l-3.92 6.5h10.21l-1.1-1.82h-5.33l1.72-2.86h4.71l-1.1-1.82H51.5ZM64 2.52H57.19v6.5h2.35V4.34h2.1v4.68H64V4.34h2.1v4.68h2.36V4.34l-1.1-1.82H64ZM66.99 1.81 65.89 0h-8.67v1.82H67ZM78.4 2.52h-7.52v6.5h2.35V4.34h4.08l-.86 1.43h-1.7l-1.08 1.81v.01h4.36l3.06-5.07H78.4ZM43.69 2.52l-1.96 3.25h-.94l-1.96-3.25h-2.68L39 7.23H40.85l-1.08 1.8h2.68l3.92-6.5h-2.68ZM101.64 2.52H93.8l3.05 5.07-.86 1.43h2.68l.86-1.43h1.69l-1.1-1.82h-1.69l-.86-1.43h4.08v4.68H104v-6.5h-2.36Z" fill="white"/></svg>