<svg width="28" height="28" viewBox="0 0 28 28" fill="none" xmlns="http://www.w3.org/2000/svg">
<path fill-rule="evenodd" clip-rule="evenodd" d="M13.9246 27.8493C21.615 27.8493 27.8493 21.615 27.8493 13.9246C27.8493 6.23427 21.615 0 13.9246 0C6.23427 0 0 6.23427 0 13.9246C0 21.615 6.23427 27.8493 13.9246 27.8493ZM10.8047 8.68131C11.008 8.61833 11.5162 8.54091 11.917 8.51183C12.0303 8.5036 12.5772 8.50282 13.1324 8.51014C14.5033 8.52812 15.0145 8.63055 15.2242 8.92923C15.437 9.23248 15.4423 9.30031 15.4301 11.597L15.4188 13.7328L15.5303 13.9593C15.651 14.2047 15.8102 14.3292 16.0033 14.3292C16.1416 14.3292 16.5563 14.0041 16.8231 13.6864C17.4936 12.8882 18.511 11.1164 19.0052 9.88658C19.1907 9.42483 19.3387 9.18468 19.4783 9.11883C19.55 9.08497 20.1896 9.06687 21.6603 9.05712L23.7408 9.0433L23.9142 9.13586C24.1579 9.26593 24.2117 9.4503 24.1172 9.8324C23.9562 10.484 23.377 11.4081 21.9306 13.3214C20.9052 14.6777 20.7534 14.9268 20.7548 15.2511C20.7565 15.6373 20.838 15.7447 22.006 16.8992C23.1059 17.9864 23.4289 18.3485 23.805 18.9155C24.0911 19.3469 24.1507 19.531 24.1363 19.9394C24.1311 20.0886 23.9013 20.3136 23.688 20.3784C23.4726 20.4439 20.1359 20.5075 19.8888 20.4509C19.7868 20.4275 19.5365 20.3286 19.3326 20.2311C18.8801 20.0148 18.5774 19.745 17.7584 18.8284C16.8849 17.8507 16.6508 17.6772 16.2326 17.6978C16.1128 17.7037 15.8335 17.9566 15.705 18.1755C15.5593 18.4236 15.4533 18.8882 15.4187 19.43C15.3837 19.979 15.3256 20.1556 15.1377 20.2836C14.9096 20.4389 14.6003 20.4699 13.5237 20.4453C12.442 20.4206 12.1266 20.3741 11.4021 20.1323C10.8747 19.9564 10.4482 19.7455 9.85714 19.3684C8.59142 18.5609 8.04329 18.0181 6.80443 16.3449C5.96211 15.2073 5.17416 13.9034 4.24383 12.1079C3.76598 11.1856 3.11753 9.74647 3.09046 9.54807C3.06517 9.36288 3.14682 9.22047 3.33798 9.11615C3.45857 9.05038 3.63728 9.04211 5.18121 9.03104L6.89091 9.01878L7.11745 9.13388C7.38586 9.27025 7.46059 9.37383 7.69665 9.93635C7.89197 10.4018 8.7673 12.146 9.07834 12.6895C9.95235 14.2166 10.7454 14.7674 11.0907 14.0871C11.2194 13.8334 11.2561 13.6713 11.3429 12.9717C11.4743 11.9135 11.3645 10.4186 11.1203 9.94067C10.9774 9.66107 10.6587 9.44705 10.2809 9.37699C10.1967 9.3614 10.1157 9.32907 10.1009 9.30517C10.0204 9.17514 10.4555 8.78945 10.8047 8.68131Z" fill="white"/>
</svg>
