<svg width="28" height="28" viewBox="0 0 28 28" fill="none" xmlns="http://www.w3.org/2000/svg">
<path fill-rule="evenodd" clip-rule="evenodd" d="M14.0754 0C6.38501 0 0.150734 6.23427 0.150734 13.9246C0.150734 21.615 6.38501 27.8493 14.0754 27.8493C21.7657 27.8493 28 21.615 28 13.9246C28 6.23427 21.7657 0 14.0754 0ZM10.5424 11.8495C13.3645 10.6854 16.5491 9.36789 17.6194 8.92173C19.1955 8.26474 19.6467 8.10948 19.9939 8.10477C20.3622 8.09972 20.4469 8.12966 20.5943 8.31684C20.6887 8.4367 20.7658 8.65076 20.7657 8.79245C20.7654 9.33985 19.0731 20.1682 18.9322 20.5245C18.8832 20.6485 18.7448 20.8481 18.6245 20.9683C18.4231 21.1697 18.3683 21.1828 17.9222 21.1363C17.2379 21.065 16.9488 20.9162 15.0892 19.6782C13.1569 18.3918 11.9452 17.5015 11.8739 17.3159C11.846 17.2433 11.8231 17.066 11.823 16.9218C11.823 16.693 11.9569 16.5341 12.8788 15.6694C14.8873 13.7854 16.6994 11.9599 16.7985 11.7209C16.9244 11.4175 16.8169 11.2944 16.4961 11.3749C16.3661 11.4074 14.7954 12.4165 13.0057 13.6171C11.2161 14.8178 9.62287 15.8541 9.46529 15.9198C8.90157 16.1551 8.31739 16.0766 6.67357 15.5449C5.01518 15.0084 4.78118 14.8687 4.91466 14.4945C4.95705 14.3754 5.08623 14.2078 5.20157 14.122C5.317 14.0363 7.72037 13.0136 10.5424 11.8495Z" fill="white"/>
</svg>
