<svg width="28" height="27" viewBox="0 0 28 27" fill="none" xmlns="http://www.w3.org/2000/svg">
<path fill-rule="evenodd" clip-rule="evenodd" d="M13.2588 0.00426503C11.2147 0.131607 9.4284 0.594142 7.68472 1.44758C3.60794 3.44297 0.772773 7.26367 0.129203 11.6296C0.0243394 12.3409 -0.000186693 12.71 1.06683e-06 13.5752C0.000165357 14.443 0.0261701 14.8351 0.128992 15.5208C0.382162 17.2092 0.9779 18.8818 1.85129 20.3564C2.90654 22.1381 4.42817 23.7154 6.20372 24.8681C7.88027 25.9565 9.64052 26.6332 11.7157 26.987L11.792 27V22.256V17.512H10.0198H8.24774L8.25373 15.5379L8.25974 13.5638H10.0241H11.7885L11.7987 11.7661C11.8096 9.82612 11.815 9.7285 11.9457 9.1175C12.2694 7.60435 13.1223 6.47091 14.4091 5.84419C14.8626 5.62325 15.5438 5.42491 16.1222 5.3454C16.5412 5.28776 17.9121 5.2876 18.5513 5.34508C19.0464 5.38962 19.8595 5.48521 20.0944 5.52649L20.2529 5.55432L20.2589 7.23229L20.2649 8.91024L19.3436 8.91045C18.8368 8.91054 18.3008 8.92098 18.1523 8.93366C17.2175 9.01342 16.5965 9.44032 16.3404 10.1794C16.2137 10.545 16.2046 10.6784 16.2045 12.1814L16.2043 13.5524H18.1296C19.8726 13.5524 20.0562 13.5559 20.0693 13.5888C20.0804 13.6171 19.5266 17.2388 19.4772 17.4607L19.4657 17.512H17.835H16.2043V22.256V27L16.2689 26.9889C16.3044 26.9828 16.476 26.9517 16.6502 26.9198C21.2318 26.0815 25.1353 23.003 26.9375 18.8068C27.4798 17.5442 27.7982 16.3095 27.9552 14.8609C28.0148 14.3103 28.015 12.842 27.9554 12.2895C27.704 9.95826 26.9468 7.90234 25.6454 6.01793C23.4378 2.82132 19.9356 0.681638 16.0048 0.12808C15.3867 0.0410157 14.9201 0.0093851 14.1507 0.00235354C13.7376 -0.00142393 13.3363 -0.000559207 13.2588 0.00426503Z" fill="white"/>
</svg>
