<?xml version="1.0" encoding="UTF-8"?>
<!DOCTYPE svg PUBLIC "-//W3C//DTD SVG 1.1//EN" "http://www.w3.org/Graphics/SVG/1.1/DTD/svg11.dtd">
<!-- Creator: CorelDRAW 2019 (64-Bit) -->
<svg xmlns="http://www.w3.org/2000/svg" xml:space="preserve" width="19.189mm" height="48.395mm" version="1.1" style="shape-rendering:geometricPrecision; text-rendering:geometricPrecision; image-rendering:optimizeQuality; fill-rule:evenodd; clip-rule:evenodd"
viewBox="0 0 550.45 1388.26"
 xmlns:xlink="http://www.w3.org/1999/xlink"
 xmlns:xodm="http://www.corel.com/coreldraw/odm/2003">
 <defs>
  <style type="text/css">
   <![CDATA[
    .fil0 {fill:none}
    .fil1 {fill:#FEFEFE;fill-rule:nonzero}
   ]]>
  </style>
 </defs>
 <g id="Слой_x0020_1">
  <metadata id="CorelCorpID_0Corel-Layer"/>
  <path class="fil0" d="M439.5 1385.4c95.83,-516.99 -55.22,-963.16 -431.16,-1345.22"/>
  <path class="fil1" d="M9.56 41.45l-9.56 -9.95 84.9 -31.49 8.66 9.02 -34.89 83.56 -9.64 -10.04 8.59 -20.68 -27.13 -28.25 -20.93 7.84zm67.76 -25.67l-35.47 13.14 20.92 21.78 14.55 -34.92zm-21.08 100.8l-8.05 -9.26 22.35 -19.42 5.18 5.97c7.77,-1.02 15.64,-3.64 23.63,-7.87 8.17,-4.39 17.95,-11.53 29.35,-21.43l8.63 -7.5 35.82 41.23 -53.34 46.34 7.81 9 -22.35 19.42 -8.05 -9.26 13.36 -11.6 -41 -47.2 -13.36 11.6zm28.77 -12.03l26.3 30.28 44.35 -38.53 -19.03 -21.91c-10.39,9.02 -19.66,15.98 -27.81,20.87 -8.2,4.95 -16.14,8.04 -23.81,9.28zm50.53 77.82l-7.98 -10.23 65.1 -50.79 8.12 10.42 -12.82 43.97 45.62 -1.93 7.98 10.23 -65.1 50.79 -7.98 -10.23 49.48 -38.6 -38.7 1.02 -4.64 -5.95 10.4 -37.29 -49.48 38.6zm59.42 78.1l-6.33 -9.1 67.82 -47.11 7.4 10.66 -49.79 34.59 75.71 2.71 6.46 9.3 -67.81 47.11 -7.4 -10.66 49.99 -34.73 -76.03 -2.77zm51.58 76.33l-6.77 -11.07 70.44 -43.1 6.77 11.07 -27.77 16.99 22.47 36.73 27.77 -16.99 6.77 11.07 -70.43 43.1 -6.77 -11.07 32.5 -19.89 -22.47 -36.73 -32.5 19.89zm44.89 75.27l-5.21 -9.79 72.9 -38.78 6.09 11.45 -53.53 28.47 74.86 11.62 5.32 10 -72.9 38.78 -6.1 -11.46 53.74 -28.59 -75.18 -11.72zm52.27 107.63c-5.11,-11.24 -5.75,-22.35 -1.93,-33.33 3.96,-10.87 11.59,-18.87 22.91,-24.01 11.31,-5.14 22.33,-5.61 33.04,-1.41 10.76,4.09 18.74,11.87 23.95,23.33 3.48,7.66 4.89,15.22 4.23,22.7l-11.92 5.42c1.17,-7.88 0.06,-15.54 -3.32,-22.98 -3.58,-7.88 -9.22,-13.26 -16.93,-16.15 -7.6,-2.85 -15.44,-2.44 -23.53,1.24 -8.09,3.68 -13.58,9.37 -16.47,17.07 -2.82,7.67 -2.39,15.56 1.29,23.65 3.91,8.59 9.45,14.71 16.64,18.36l-11.92 5.42c-6.87,-4.48 -12.21,-10.91 -16.02,-19.28zm81.98 4.79l11.14 -4.23 23.99 63.19 -11.14 4.23 -9.71 -25.58 -66.06 25.08 -4.6 -12.13 66.06 -25.07 -9.67 -25.48zm-33.02 113.85l-4.21 -12.27 78.1 -26.8 11.52 33.58c2.81,8.18 2.87,15.27 0.19,21.26 -2.48,6.09 -7.11,10.3 -13.88,12.62 -6.77,2.32 -13.15,1.89 -19.15,-1.29 -5.87,-3.06 -10.21,-8.68 -13.02,-16.86l-7.31 -21.31 -32.25 11.06zm66.84 -22.93l-23.32 8 6.97 20.31c1.58,4.61 3.84,7.87 6.78,9.77 2.94,1.9 6.27,2.21 9.99,0.94 3.72,-1.28 6.14,-3.54 7.27,-6.8 1.13,-3.26 0.89,-7.23 -0.72,-11.91l-6.97 -20.31zm-43.9 95.58l-2.91 -10.7 79.68 -21.65 3.4 12.52 -58.51 15.89 70.42 27.93 2.97 10.93 -79.68 21.65 -3.4 -12.52 58.74 -15.96 -70.71 -28.1zm22.07 89.42l-2.58 -12.72 80.93 -16.39 7.05 34.8c1.72,8.48 0.85,15.51 -2.59,21.1 -3.25,5.71 -8.39,9.28 -15.4,10.7 -7.02,1.42 -13.29,0.16 -18.82,-3.77 -5.42,-3.8 -8.99,-9.93 -10.71,-18.41l-4.47 -22.08 -33.41 6.77zm69.25 -14.02l-24.16 4.89 4.26 21.04c0.97,4.78 2.79,8.3 5.45,10.57 2.67,2.27 5.93,3.01 9.78,2.23 3.86,-0.78 6.55,-2.71 8.1,-5.79 1.54,-3.08 1.82,-7.05 0.84,-11.9l-4.26 -21.04zm-35.26 93.85c-5.02,6.31 -6.98,13.48 -5.89,21.51 1.09,8.03 4.89,14.42 11.41,19.17 6.67,4.73 14.29,6.52 22.87,5.36 8.65,-1.17 15.48,-4.91 20.5,-11.23 5.09,-6.33 7.1,-13.5 6.01,-21.53 -1.09,-8.03 -4.93,-14.41 -11.52,-19.15 -6.43,-4.68 -14,-6.44 -22.73,-5.26 -8.73,1.18 -15.61,4.89 -20.64,11.13zm-1.72 51.42c-9.18,-6.85 -14.59,-16.28 -16.21,-28.28 -1.62,-12 1.08,-22.53 8.11,-31.57 7.19,-8.99 16.75,-14.29 28.68,-15.91 12,-1.63 22.59,0.95 31.76,7.72 9.26,6.84 14.7,16.26 16.33,28.26 1.63,12 -1.11,22.53 -8.22,31.59 -7.03,9.05 -16.54,14.38 -28.54,16.01 -12,1.63 -22.63,-0.98 -31.89,-7.82zm-5.05 71.41l-2.85 -40.48 82.37 -5.8 2.63 37.42c0.52,7.46 -0.86,13.49 -4.16,18.09 -3.3,4.61 -8.09,7.13 -14.37,7.58 -4.08,0.29 -7.68,-0.48 -10.81,-2.31 -3.12,-1.83 -5.43,-4.31 -6.91,-7.44 -0.58,5.25 -2.71,9.63 -6.41,13.17 -3.69,3.53 -8.48,5.5 -14.37,5.92 -6.98,0.49 -12.77,-1.62 -17.35,-6.34 -4.59,-4.65 -7.18,-11.24 -7.78,-19.79zm35.83 -30.19l-25.89 1.82 1.77 25.18c0.35,5.02 1.79,8.88 4.3,11.58 2.52,2.7 5.85,3.9 10.01,3.61 4.08,-0.29 7.12,-1.92 9.12,-4.9 2,-2.98 2.81,-7.02 2.46,-12.12l-1.77 -25.18zm32.71 -2.3l-21.3 1.5 1.57 22.24c0.3,4.31 1.46,7.6 3.47,9.87 2.01,2.26 4.74,3.27 8.2,3.03 3.45,-0.24 6,-1.62 7.63,-4.14 1.64,-2.52 2.3,-5.94 2,-10.25l-1.57 -22.24zm-66.26 83.05l-0.1 -13.8 83.3 35.49 0.09 12.5 -82.78 36.7 -0.1 -13.92 20.46 -9.11 -0.28 -39.16 -20.59 -8.7zm66.85 27.94l-34.79 -14.84 0.22 30.19 34.57 -15.35zm-67.71 68.77l0.7 -12.95 82.45 4.45 -0.7 12.96 -32.51 -1.76 -2.32 42.99 32.51 1.76 -0.7 12.95 -82.45 -4.45 0.7 -12.96 38.05 2.05 2.32 -42.99 -38.05 -2.05zm-5.88 87.44l1.25 -11.02 82.04 9.31 -1.46 12.89 -60.24 -6.83 55.13 51.96 -1.28 11.25 -82.05 -9.31 1.46 -12.89 60.48 6.86 -55.34 -52.22zm-19.29 138.05l10.17 -59.41 81.39 13.93 -9.91 57.9 -11.74 -2.01 7.72 -45.11 -20.35 -3.48 -6.29 36.74 -11.74 -2.01 6.29 -36.74 -25.81 -4.42 -7.98 46.62 -11.74 -2.01z"/>
 </g>
</svg>
