<svg width="36" height="30" viewBox="0 0 36 30" fill="none" xmlns="http://www.w3.org/2000/svg">
<g filter="url(#filter0_f_68_23541)">
<mask id="path-1-inside-1_68_23541" fill="white">
<path fill-rule="evenodd" clip-rule="evenodd" d="M11.8461 10L10 11.8461L18 19.8461L26 11.8461L24.1538 10L18 16.1538L11.8461 10Z"/>
</mask>
<path d="M10 11.8461L9.64645 11.4926L9.29289 11.8461L9.64645 12.1997L10 11.8461ZM11.8461 10L12.1997 9.64645L11.8461 9.29289L11.4926 9.64645L11.8461 10ZM18 19.8461L17.6464 20.1997L18 20.5532L18.3535 20.1997L18 19.8461ZM26 11.8461L26.3535 12.1997L26.7071 11.8461L26.3535 11.4926L26 11.8461ZM24.1538 10L24.5074 9.64645L24.1538 9.29289L23.8003 9.64645L24.1538 10ZM18 16.1538L17.6464 16.5074L18 16.8609L18.3535 16.5074L18 16.1538ZM10.3536 12.1997L12.1997 10.3536L11.4926 9.64645L9.64645 11.4926L10.3536 12.1997ZM18.3535 19.4926L10.3536 11.4926L9.64645 12.1997L17.6464 20.1997L18.3535 19.4926ZM25.6464 11.4926L17.6464 19.4926L18.3535 20.1997L26.3535 12.1997L25.6464 11.4926ZM23.8003 10.3536L25.6464 12.1997L26.3535 11.4926L24.5074 9.64645L23.8003 10.3536ZM23.8003 9.64645L17.6464 15.8003L18.3535 16.5074L24.5074 10.3536L23.8003 9.64645ZM18.3535 15.8003L12.1997 9.64645L11.4926 10.3536L17.6464 16.5074L18.3535 15.8003Z" fill="#8000FF" mask="url(#path-1-inside-1_68_23541)"/>
</g>
<g filter="url(#filter1_f_68_23541)">
<mask id="path-3-inside-2_68_23541" fill="white">
<path fill-rule="evenodd" clip-rule="evenodd" d="M11.8461 10L10 11.8461L18 19.8461L26 11.8461L24.1538 10L18 16.1538L11.8461 10Z"/>
</mask>
<path d="M10 11.8461L9.64645 11.4926L9.29289 11.8461L9.64645 12.1997L10 11.8461ZM11.8461 10L12.1997 9.64645L11.8461 9.29289L11.4926 9.64645L11.8461 10ZM18 19.8461L17.6464 20.1997L18 20.5532L18.3535 20.1997L18 19.8461ZM26 11.8461L26.3535 12.1997L26.7071 11.8461L26.3535 11.4926L26 11.8461ZM24.1538 10L24.5074 9.64645L24.1538 9.29289L23.8003 9.64645L24.1538 10ZM18 16.1538L17.6464 16.5074L18 16.8609L18.3535 16.5074L18 16.1538ZM10.3536 12.1997L12.1997 10.3536L11.4926 9.64645L9.64645 11.4926L10.3536 12.1997ZM18.3535 19.4926L10.3536 11.4926L9.64645 12.1997L17.6464 20.1997L18.3535 19.4926ZM25.6464 11.4926L17.6464 19.4926L18.3535 20.1997L26.3535 12.1997L25.6464 11.4926ZM23.8003 10.3536L25.6464 12.1997L26.3535 11.4926L24.5074 9.64645L23.8003 10.3536ZM23.8003 9.64645L17.6464 15.8003L18.3535 16.5074L24.5074 10.3536L23.8003 9.64645ZM18.3535 15.8003L12.1997 9.64645L11.4926 10.3536L17.6464 16.5074L18.3535 15.8003Z" fill="#8000FF" mask="url(#path-3-inside-2_68_23541)"/>
</g>
<mask id="path-5-inside-3_68_23541" fill="white">
<path fill-rule="evenodd" clip-rule="evenodd" d="M11.8462 10L10 11.8461L18 19.8461L26 11.8461L24.1539 10L18 16.1538L11.8462 10Z"/>
</mask>
<path d="M10 11.8461L9.64648 11.4926L9.29292 11.8461L9.64648 12.1997L10 11.8461ZM11.8462 10L12.1997 9.64645L11.8462 9.29289L11.4926 9.64645L11.8462 10ZM18 19.8461L17.6465 20.1997L18 20.5532L18.3536 20.1997L18 19.8461ZM26 11.8461L26.3536 12.1997L26.7071 11.8461L26.3536 11.4926L26 11.8461ZM24.1539 10L24.5074 9.64645L24.1539 9.29289L23.8003 9.64645L24.1539 10ZM18 16.1538L17.6465 16.5074L18 16.8609L18.3536 16.5074L18 16.1538ZM10.3536 12.1997L12.1997 10.3536L11.4926 9.64645L9.64648 11.4926L10.3536 12.1997ZM18.3536 19.4926L10.3536 11.4926L9.64648 12.1997L17.6465 20.1997L18.3536 19.4926ZM25.6465 11.4926L17.6465 19.4926L18.3536 20.1997L26.3536 12.1997L25.6465 11.4926ZM23.8003 10.3536L25.6465 12.1997L26.3536 11.4926L24.5074 9.64645L23.8003 10.3536ZM23.8003 9.64645L17.6465 15.8003L18.3536 16.5074L24.5074 10.3536L23.8003 9.64645ZM18.3536 15.8003L12.1997 9.64645L11.4926 10.3536L17.6465 16.5074L18.3536 15.8003Z" fill="white" mask="url(#path-5-inside-3_68_23541)"/>
<defs>
<filter id="filter0_f_68_23541" x="0" y="0" width="36" height="29.8462" filterUnits="userSpaceOnUse" color-interpolation-filters="sRGB">
<feFlood flood-opacity="0" result="BackgroundImageFix"/>
<feBlend mode="normal" in="SourceGraphic" in2="BackgroundImageFix" result="shape"/>
<feGaussianBlur stdDeviation="5" result="effect1_foregroundBlur_68_23541"/>
</filter>
<filter id="filter1_f_68_23541" x="0" y="0" width="36" height="29.8462" filterUnits="userSpaceOnUse" color-interpolation-filters="sRGB">
<feFlood flood-opacity="0" result="BackgroundImageFix"/>
<feBlend mode="normal" in="SourceGraphic" in2="BackgroundImageFix" result="shape"/>
<feGaussianBlur stdDeviation="5" result="effect1_foregroundBlur_68_23541"/>
</filter>
</defs>
</svg>
