<?xml version="1.0" encoding="UTF-8"?>
<!DOCTYPE svg PUBLIC "-//W3C//DTD SVG 1.1//EN" "http://www.w3.org/Graphics/SVG/1.1/DTD/svg11.dtd">
<!-- Creator: CorelDRAW 2019 (64-Bit) -->
<svg xmlns="http://www.w3.org/2000/svg" xml:space="preserve" width="18.6963mm" height="46.3885mm" version="1.1" style="shape-rendering:geometricPrecision; text-rendering:geometricPrecision; image-rendering:optimizeQuality; fill-rule:evenodd; clip-rule:evenodd"
viewBox="0 0 330.12 819.08"
 xmlns:xlink="http://www.w3.org/1999/xlink"
 xmlns:xodm="http://www.corel.com/coreldraw/odm/2003">
 <defs>
  <style type="text/css">
   <![CDATA[
    .fil0 {fill:none}
    .fil1 {fill:#FEFEFE;fill-rule:nonzero}
   ]]>
  </style>
 </defs>
 <g id="Слой_x0020_1">
  <metadata id="CorelCorpID_0Corel-Layer"/>
  <path class="fil0" d="M330.12 0c-240,230.63 -317.25,530.26 -260.81,819.08"/>
  <path class="fil1" d="M39.93 651.01c3.57,-3.45 5.35,-7.66 5.33,-12.65 -0.02,-4.99 -1.82,-9.19 -5.41,-12.62 -3.69,-3.43 -8.2,-5.13 -13.52,-5.11 -5.37,0.02 -9.84,1.75 -13.41,5.2 -3.62,3.45 -5.42,7.66 -5.4,12.65 0.02,4.99 1.85,9.19 5.49,12.62 3.55,3.38 8.03,5.06 13.45,5.04 5.42,-0.02 9.92,-1.73 13.49,-5.13zm5.2 -31.24c5.05,4.92 7.59,11.11 7.61,18.56 0.02,7.45 -2.47,13.66 -7.49,18.61 -5.12,4.91 -11.37,7.37 -18.78,7.39 -7.45,0.02 -13.71,-2.4 -18.76,-7.27 -5.1,-4.92 -7.66,-11.11 -7.68,-18.56 -0.02,-7.45 2.5,-13.66 7.56,-18.61 5.02,-4.95 11.25,-7.44 18.71,-7.47 7.45,-0.02 13.73,2.42 18.83,7.35zm8.61 -39.69l-1.23 21.46 -50.74 -2.92 2.06 -35.81 7.32 0.42 -1.6 27.84 10.73 0.62 0.78 -13.48c0.33,-5.75 2.12,-10.2 5.35,-13.36 3.19,-3.16 7.22,-4.6 12.1,-4.32 4.93,0.28 8.77,2.18 11.53,5.68 2.81,3.46 4.04,8.09 3.71,13.89zm-26.15 12.02l18.05 1.04 0.73 -12.76c0.21,-3.58 -0.42,-6.39 -1.88,-8.43 -1.46,-2.05 -3.61,-3.15 -6.46,-3.32 -2.85,-0.16 -5.13,0.7 -6.84,2.59 -1.71,1.89 -2.66,4.6 -2.87,8.12l-0.73 12.76zm29.35 -48.62l-0.95 7.93 -50.47 -6.05 2.6 -21.7c0.63,-5.29 2.49,-9.23 5.59,-11.84 3.01,-2.71 6.7,-3.81 11.07,-3.28 4.38,0.52 7.8,2.47 10.27,5.84 2.44,3.26 3.34,7.54 2.71,12.83l-1.65 13.77 20.84 2.5zm-43.18 -5.18l15.07 1.8 1.57 -13.12c0.36,-2.98 -0.02,-5.39 -1.14,-7.23 -1.12,-1.84 -2.88,-2.9 -5.28,-3.19 -2.4,-0.29 -4.35,0.32 -5.85,1.82 -1.5,1.5 -2.42,3.77 -2.79,6.8l-1.57 13.12zm47.85 -32.89l-1.54 8.36 -46.25 -31.1 1.39 -7.57 54.29 -12.6 -1.55 8.43 -13.42 3.14 -4.36 23.71 11.44 7.64zm-37.18 -24.63l19.31 13 3.36 -18.28 -22.68 5.28zm50.85 -39.82c-1.73,6.9 -4.58,12.3 -8.55,16.2l-7.61 -1.91c1.9,-1.82 3.64,-4.09 5.22,-6.81 1.58,-2.72 2.71,-5.45 3.39,-8.17 1.05,-4.18 1.09,-7.67 0.12,-10.48 -0.97,-2.81 -2.77,-4.55 -5.39,-5.21 -2.3,-0.58 -4.43,0.06 -6.39,1.92 -1.96,1.85 -3.39,4.59 -4.3,8.21l-1.53 6.13 -7.12 -1.78 1.77 -7.04c0.75,-3.01 0.75,-5.48 -0.02,-7.41 -0.76,-1.94 -2.18,-3.16 -4.24,-3.68 -2.07,-0.52 -3.91,0.03 -5.54,1.64 -1.63,1.61 -2.85,4.06 -3.67,7.35 -1.32,5.26 -1.39,10.63 -0.22,16.11l-7.11 -1.78c-1.28,-5.46 -1.22,-10.98 0.18,-16.57 1.34,-5.35 3.64,-9.37 6.91,-12.04 3.27,-2.68 6.92,-3.51 10.96,-2.5 2.68,0.67 4.68,2.02 6.02,4.06 1.34,2.03 2.09,4.09 2.27,6.18 1.4,-2.39 3.42,-4.29 6.06,-5.67 2.55,-1.41 5.42,-1.71 8.61,-0.91 4.41,1.11 7.62,3.85 9.61,8.25 1.96,4.33 2.15,9.65 0.57,15.94zm-1.82 -43.73c4.39,-2.32 7.26,-5.88 8.63,-10.68 1.37,-4.8 0.8,-9.34 -1.71,-13.62 -2.6,-4.31 -6.46,-7.2 -11.58,-8.66 -5.17,-1.47 -9.94,-1.05 -14.33,1.28 -4.43,2.31 -7.33,5.86 -8.7,10.66 -1.37,4.8 -0.77,9.34 1.78,13.64 2.47,4.23 6.31,7.08 11.53,8.57 5.22,1.48 10.01,1.09 14.38,-1.19zm13.65 -28.58c3.49,6.13 4.21,12.78 2.17,19.95 -2.04,7.17 -6.16,12.44 -12.35,15.81 -6.27,3.3 -12.97,3.93 -20.1,1.9 -7.17,-2.04 -12.51,-6.1 -16.01,-12.18 -3.54,-6.14 -4.29,-12.79 -2.24,-19.96 2.04,-7.17 6.18,-12.43 12.42,-15.79 6.19,-3.37 12.87,-4.03 20.04,-1.99 7.17,2.04 12.52,6.13 16.06,12.27zm21.28 -38.76l-9.13 23.25 -47.31 -18.58 8.44 -21.49c1.68,-4.28 4.05,-7.26 7.1,-8.95 3.05,-1.69 6.38,-1.82 9.99,-0.41 2.34,0.92 4.14,2.3 5.39,4.15 1.25,1.84 1.88,3.83 1.87,5.96 1.71,-2.76 4.06,-4.63 7.05,-5.62 2.99,-0.99 6.17,-0.81 9.55,0.51 4.01,1.57 6.67,4.28 7.97,8.12 1.32,3.79 1.01,8.15 -0.91,13.06zm-27.91 7.29l14.87 5.84 5.68 -14.46c1.13,-2.89 1.36,-5.41 0.67,-7.58 -0.68,-2.17 -2.22,-3.72 -4.61,-4.66 -2.34,-0.92 -4.46,-0.82 -6.36,0.31 -1.9,1.13 -3.42,3.16 -4.57,6.08l-5.68 14.46zm-18.79 -7.38l12.23 4.8 5.02 -12.77c0.97,-2.48 1.2,-4.61 0.68,-6.4 -0.52,-1.79 -1.77,-3.07 -3.75,-3.85 -1.98,-0.78 -3.76,-0.69 -5.34,0.28 -1.58,0.97 -2.85,2.69 -3.82,5.17l-5.02 12.77zm58.37 -28.79l-3.36 7.8 -38.16 -40.62 3.04 -7.07 55.74 -0.19 -3.39 7.87 -13.79 0.07 -9.53 22.14 9.45 10zm-30.76 -32.3l15.93 16.98 7.35 -17.07 -23.28 0.09zm55.92 -21.65l-3.63 7.12 -45.28 -23.09 3.63 -7.11 17.85 9.1 12.04 -23.61 -17.85 -9.1 3.63 -7.11 45.28 23.09 -3.63 7.12 -20.89 -10.65 -12.04 23.61 20.89 10.65zm25.94 -47.29l-3.49 5.87 -43.69 -25.98 4.08 -6.87 32.08 19.07 -17.79 -43.1 3.56 -5.99 43.69 25.98 -4.08 6.87 -32.2 -19.15 17.84 43.3zm46.8 -71.91l-20.98 30.6 -41.92 -28.74 20.45 -29.82 6.05 4.15 -15.93 23.23 10.48 7.18 12.97 -18.92 6.05 4.15 -12.97 18.92 13.3 9.11 16.46 -24.01 6.05 4.15z"/>
 </g>
</svg>
