<?xml version="1.0" encoding="UTF-8"?>
<!DOCTYPE svg PUBLIC "-//W3C//DTD SVG 1.1//EN" "http://www.w3.org/Graphics/SVG/1.1/DTD/svg11.dtd">
<!-- Creator: CorelDRAW 2019 (64-Bit) -->
<svg xmlns="http://www.w3.org/2000/svg" xml:space="preserve" width="6.3968mm" height="6.8717mm" version="1.1" style="shape-rendering:geometricPrecision; text-rendering:geometricPrecision; image-rendering:optimizeQuality; fill-rule:evenodd; clip-rule:evenodd"
viewBox="0 0 587.29 630.89"
 xmlns:xlink="http://www.w3.org/1999/xlink"
 xmlns:xodm="http://www.corel.com/coreldraw/odm/2003">
 <defs>
  <style type="text/css">
   <![CDATA[
    .str2 {stroke:white;stroke-width:7.78;stroke-miterlimit:22.9256}
    .str0 {stroke:white;stroke-width:15.54;stroke-miterlimit:22.9256}
    .str1 {stroke:#4D4D4D;stroke-width:7;stroke-miterlimit:22.9256}
    .fil1 {fill:none}
    .fil0 {fill:white}
   ]]>
  </style>
 </defs>
 <g id="Слой_x0020_1">
  <metadata id="CorelCorpID_0Corel-Layer"/>
  <path class="fil0" d="M281.7 203.38l126.44 0 0.26 122.87 -96.4 0 0 21.08 47.07 0 0 28.28 -47.07 0 0 40.18 -31.07 -0.02 0 -39.59 -47.3 0 0 -28.7 47.65 0 0 -20.67 -47.37 0 0 -28.7 47.66 0 0.13 -94.73zm97.93 25.23l-69.18 0 0 69.5 69.18 0 0 -69.5z"/>
  <polyline class="fil1 str0" points="510.21,470.66 510.21,222.48 377.71,116.69 433.38,39.86 372.14,8.69 323.93,27.62 285.35,8.69 224.11,39.86 279.78,116.69 147.28,222.48 147.28,412.87 "/>
  <g id="_2014367213920">
   <polyline class="fil1 str1" points="297.81,475.32 227.68,522.36 201.25,445.69 199.54,440.73 "/>
   <line class="fil1 str1" x1="117.19" y1="513.39" x2="201.25" y2= "445.69" />
   <polygon class="fil1 str1" points="117.19,513.39 227.68,522.36 163.55,581.91 "/>
   <line class="fil1 str1" x1="404.4" y1="488.48" x2="337.06" y2= "523.41" />
   <line class="fil1 str1" x1="297.81" y1="475.32" x2="337.06" y2= "523.41" />
   <line class="fil1 str1" x1="272.21" y1="528.61" x2="297.81" y2= "475.32" />
   <line class="fil1 str1" x1="227.68" y1="522.36" x2="278.1" y2= "523.24" />
   <polyline class="fil1 str1" points="224.89,524.96 251.34,559.75 163.55,581.91 "/>
   <polyline class="fil1 str1" points="570.55,478.24 517.18,538.99 496.89,488.33 "/>
   <polyline class="fil1 str1" points="519.77,537.77 390.55,528.61 417.73,586.05 "/>
   <polyline class="fil1 str1" points="339.4,623.12 331.38,528.61 416.27,582.99 "/>
   <line class="fil1 str1" x1="251.34" y1="559.75" x2="339.4" y2= "623.12" />
   <line class="fil1 str1" x1="291.86" y1="588.91" x2="331.38" y2= "528.61" />
   <line class="fil1 str1" x1="272.21" y1="528.61" x2="291.86" y2= "588.91" />
  </g>
  <path class="fil1 str2" d="M347.96 116.44l-68.36 0m0 0l-0.34 0 0.34 0z"/>
  <g id="_2014367214272">
   <polyline class="fil1 str0" points="-0,423.42 117.19,423.42 117.19,603.36 38.83,603.36 "/>
   <polygon class="fil1 str0" points="547.99,472.95 570.56,478.24 578.69,494.7 569.8,514.08 339.4,623.12 311.02,623.12 163.55,581.9 117.19,581.9 117.19,440.72 199.54,440.72 297.81,475.32 384.33,475.32 404.4,488.48 404.4,516.16 "/>
   <polyline class="fil1 str0" points="250.75,557.68 272.21,528.62 390.55,528.62 404.4,516.16 "/>
  </g>
 </g>
</svg>
