<?xml version="1.0" encoding="UTF-8"?>
<!DOCTYPE svg PUBLIC "-//W3C//DTD SVG 1.1//EN" "http://www.w3.org/Graphics/SVG/1.1/DTD/svg11.dtd">
<!-- Creator: CorelDRAW 2019 (64-Bit) -->
<svg xmlns="http://www.w3.org/2000/svg" xml:space="preserve" width="49.1592mm" height="9.5634mm" version="1.1" style="shape-rendering:geometricPrecision; text-rendering:geometricPrecision; image-rendering:optimizeQuality; fill-rule:evenodd; clip-rule:evenodd"
viewBox="0 0 4898.2 952.89"
 xmlns:xlink="http://www.w3.org/1999/xlink"
 xmlns:xodm="http://www.corel.com/coreldraw/odm/2003">
 <defs>
  <style type="text/css">
   <![CDATA[
    .fil0 {fill:none}
    .fil1 {fill:white;fill-rule:nonzero}
   ]]>
  </style>
 </defs>
 <g id="Слой_x0020_1">
  <metadata id="CorelCorpID_0Corel-Layer"/>
  <path class="fil0" d="M4898.2 952.89c-1629.84,-897.1 -3264.45,-871.63 -4898.2,0"/>
  <path class="fil1" d="M479.75 731.74l-41.07 18.58 -12.99 -28.75c-41.77,17.69 -78.5,20.67 -110.2,8.91 -31.69,-11.75 -54.45,-32.92 -68.3,-63.53 -6.53,-14.44 -10.14,-29.37 -10.82,-44.8 -0.68,-15.43 1.62,-30.72 6.91,-45.85 5.29,-15.14 14.79,-29.77 28.49,-43.91 13.69,-14.14 31,-26.24 51.92,-36.31l-11.14 -24.63 41.07 -18.58 11.14 24.64c21.38,-9.07 41.87,-14.15 61.47,-15.21 19.61,-1.07 36.9,1.38 51.89,7.33 14.99,5.97 28.05,14.3 39.19,25 11.14,10.7 19.98,23.28 26.5,37.7 6.53,14.44 10.13,29.36 10.81,44.81 0.69,15.42 -1.68,30.74 -7.1,45.92 -5.42,15.2 -15.01,29.8 -28.76,43.81 -13.75,14.02 -31.08,26.06 -52,36.13l12.99 28.74zm-70.45 -46.37l-69.24 -153.07c-28.01,12.96 -46.03,30.12 -54.07,51.44 -7.65,20.84 -6.6,42.11 3.2,63.76 9.79,21.65 25.11,36.61 45.93,44.88 20.61,7.76 45.34,5.43 74.18,-7.01zm-28.17 -171.64l69.24 153.06c28.39,-13.44 46.47,-30.47 54.24,-51.07 7.9,-20.97 6.91,-42.41 -3,-64.3 -9.79,-21.65 -25.18,-36.44 -46.14,-44.35 -21.32,-8.03 -46.1,-5.83 -74.34,6.66zm320.89 115.45l-36.3 12.85 -95.72 -270.37 42.48 -15.04 70.3 198.52 78.41 -251.17 37.09 -13.13 95.72 270.36 -42.49 15.05 -70.56 -199.3 -78.91 252.23zm306.45 -107.66l-43.3 12.47 -79.41 -275.59 43.3 -12.48 31.31 108.67 143.71 -41.42 -31.31 -108.66 43.3 -12.47 79.41 275.59 -43.3 12.48 -36.64 -127.17 -143.72 41.41 36.65 127.17zm280.45 -81.69l-46.79 10.38 59.92 -308.76 42.41 -9.41 184.87 254.46 -47.2 10.47 -45.83 -62.86 -132.81 29.46 -14.57 76.25zm46.26 -247.4l-25.1 128.96 102.4 -22.72 -77.3 -106.25zm286.63 174.44l-44.53 6.91 -44 -283.41 44.54 -6.91 17.35 111.75 147.79 -22.95 -17.35 -111.74 44.54 -6.91 43.99 283.41 -44.54 6.91 -20.3 -130.78 -147.79 22.95 20.3 130.77zm408.23 -50.29c-42.73,3.78 -79.86,-6.94 -111.44,-32.12 -31.04,-25.51 -48.45,-59.74 -52.25,-102.75 -3.8,-42.98 7.36,-79.61 33.48,-109.89 25.83,-30.53 60.51,-47.71 104.05,-51.55 29.1,-2.57 55.52,1.53 79.23,12.34l4.01 45.3c-24.45,-12.92 -50.83,-18.12 -79.12,-15.62 -29.93,2.64 -54.07,14.92 -72.44,36.83 -18.1,21.62 -25.81,47.8 -23.1,78.55 2.72,30.75 15.04,55.3 36.95,73.65 21.89,18.08 48.21,25.78 78.95,23.06 32.65,-2.88 59.1,-13.99 79.33,-33.33l4 45.32c-22.6,17.35 -49.82,27.43 -81.65,30.24zm181.57 -19.11l-38.45 2.09 -15.62 -286.38 45.01 -2.45 11.47 210.28 146.04 -218.87 39.28 -2.14 15.62 286.38 -45.02 2.45 -11.51 -211.11 -146.82 219.75zm324.6 -6.75l-45.06 -0.58 3.73 -286.79 123.31 1.6c30.05,0.39 53.31,8.48 69.76,24.26 17.01,15.24 25.36,35.3 25.04,60.15 -0.33,24.85 -9.2,45.23 -26.61,61.12 -16.87,15.62 -40.32,23.25 -70.38,22.86l-78.25 -1.03 -1.54 118.4zm3.2 -245.4l-1.12 85.62 74.56 0.97c16.94,0.22 30.24,-3.36 39.9,-10.74 9.67,-7.38 14.57,-17.92 14.75,-31.57 0.18,-13.66 -4.39,-24.24 -13.72,-31.74 -9.33,-7.49 -22.6,-11.36 -39.81,-11.58l-74.56 -0.97zm297.49 192.56c17.7,21.72 40.56,33.72 68.61,35.99 28.05,2.27 52.55,-5.88 73.5,-24.46 21.01,-19.13 32.73,-43.66 35.16,-73.61 2.45,-30.22 -5.17,-56.19 -22.87,-77.9 -17.68,-21.98 -40.53,-34.12 -68.58,-36.39 -28.05,-2.27 -52.56,6.01 -73.54,24.86 -20.67,18.33 -32.24,42.75 -34.71,73.24 -2.47,30.5 5,56.59 22.43,78.28zm173.19 44.06c-30.07,26.07 -66.06,37.39 -108,34 -41.93,-3.4 -75.63,-20.39 -101.09,-50.96 -25.16,-31.09 -36.05,-67.47 -32.67,-109.13 3.4,-41.93 20,-75.94 49.79,-102.01 30.09,-26.34 66.09,-37.81 108.03,-34.41 41.93,3.4 75.62,20.52 101.06,51.36 25.49,30.56 36.52,66.81 33.12,108.74 -3.4,41.93 -20.15,76.05 -50.24,102.4zm242.54 76.49l-138.63 -25.47 51.83 -282.1 128.15 23.54c25.53,4.69 44.61,14.59 57.24,29.68 12.64,15.1 16.99,33.39 13.04,54.89 -2.57,13.97 -8.29,25.42 -17.15,34.35 -8.86,8.92 -19.19,14.53 -31,16.79 17.15,6.49 30.05,17.47 38.73,32.95 8.69,15.47 11.17,33.3 7.46,53.45 -4.39,23.91 -16.51,41.54 -36.37,52.89 -19.6,11.4 -44.03,14.41 -73.31,9.03zm-70.53 -146.69l-16.29 88.66 86.24 15.85c17.2,3.16 31.43,1.66 42.69,-4.45 11.27,-6.12 18.2,-16.3 20.82,-30.54 2.57,-13.98 -0.3,-25.61 -8.59,-34.91 -8.28,-9.29 -21.16,-15.54 -38.63,-18.75l-86.24 -15.85zm20.59 -112.03l-13.4 72.95 76.16 13.99c14.78,2.72 26.84,1.67 36.2,-3.13 9.35,-4.82 15.12,-13.13 17.29,-24.95 2.17,-11.82 -0.28,-21.58 -7.33,-29.25 -7.05,-7.69 -17.97,-12.89 -32.75,-15.6l-76.16 -14zm227.82 290.36l-46.48 -11.74 192.22 -248.95 42.11 10.63 50.9 310.39 -46.87 -11.85 -12.72 -76.74 -131.89 -33.33 -47.26 61.59zm152.45 -200.26l-80.36 103.94 101.7 25.7 -21.34 -129.64zm177.82 284.35l-42.89 -13.81 87.92 -273 42.89 13.81 -34.66 107.64 142.36 45.84 34.67 -107.63 42.89 13.81 -87.93 273 -42.89 -13.81 40.57 -125.97 -142.36 -45.84 -40.57 125.96zm293.54 97.1l-36.27 -12.94 96.4 -270.12 42.45 15.15 -70.78 198.34 219.36 -145.32 37.05 13.22 -96.4 270.13 -42.46 -15.16 71.06 -199.12 -220.4 145.82zm453.53 182.68l-192.55 -82.21 112.61 -263.78 187.65 80.11 -16.24 38.06 -146.21 -62.42 -28.15 65.94 119.08 50.85 -16.25 38.06 -119.08 -50.84 -35.72 83.65 151.11 64.52 -16.25 38.06z"/>
 </g>
</svg>
