<?xml version="1.0" encoding="UTF-8"?>
<!DOCTYPE svg PUBLIC "-//W3C//DTD SVG 1.1//EN" "http://www.w3.org/Graphics/SVG/1.1/DTD/svg11.dtd">
<!-- Creator: CorelDRAW 2019 (64-Bit) -->
<svg xmlns="http://www.w3.org/2000/svg" xml:space="preserve" width="33.4327mm" height="25.5574mm" version="1.1" style="shape-rendering:geometricPrecision; text-rendering:geometricPrecision; image-rendering:optimizeQuality; fill-rule:evenodd; clip-rule:evenodd"
viewBox="0 0 4865.47 3719.38"
 xmlns:xlink="http://www.w3.org/1999/xlink"
 xmlns:xodm="http://www.corel.com/coreldraw/odm/2003">
 <defs>
  <style type="text/css">
   <![CDATA[
    .fil0 {fill:#FEFEFE;fill-rule:nonzero}
   ]]>
  </style>
 </defs>
 <g id="Слой_x0020_1">
  <metadata id="CorelCorpID_0Corel-Layer"/>
  <path class="fil0" d="M4479.32 47.89l29.51 -47.89 356.64 219.77 -34.53 56.04 -261.87 -161.38 141 357.52 -30.15 48.91 -356.64 -219.77 34.55 -56.04 262.89 161.99 -141.4 -359.15zm-278.79 445l37.79 -53.89 343 240.47 -37.78 53.9 -135.24 -94.81 -125.4 178.86 135.24 94.81 -37.78 53.89 -343.02 -240.47 37.79 -53.9 158.26 110.97 125.4 -178.86 -158.28 -110.97zm-392.55 509.71l41.08 -51.44 36 28.76c42.58,-50.76 88.38,-79.01 137.42,-84.79 49.03,-5.76 92.7,6.67 131.05,37.28 18.07,14.44 32.7,31.46 43.83,51.08 11.13,19.62 18.29,41.04 21.45,64.25 3.17,23.2 0.54,48.55 -7.89,76.03 -8.41,27.51 -22.89,54.72 -43.44,81.72l30.87 24.65 -41.08 51.44 -30.87 -24.65c-21.79,26.01 -45.06,46.21 -69.85,60.63 -24.78,14.41 -48.9,22.7 -72.36,24.91 -23.46,2.2 -45.99,0.03 -67.58,-6.49 -21.6,-6.52 -41.45,-17.01 -59.52,-31.45 -18.09,-14.44 -32.69,-31.46 -43.82,-51.1 -11.13,-19.62 -18.22,-41.11 -21.26,-64.47 -3.04,-23.36 -0.28,-48.72 8.3,-76.08 8.59,-27.36 23.12,-54.53 43.67,-81.53l-36 -28.76zm122.45 13.53l191.72 153.13c27.83,-35.48 39.88,-69.75 36.18,-102.83 -3.9,-32.21 -19.4,-59.16 -46.51,-80.81 -27.13,-21.65 -56.99,-30.94 -89.57,-27.87 -31.94,3.58 -62.56,23.05 -91.82,58.39zm150.62 204.57l-191.72 -153.13c-28,36.34 -40.21,70.51 -36.64,102.47 3.65,32.53 19.18,59.74 46.61,81.64 27.11,21.67 56.95,30.68 89.47,27.04 33.08,-3.71 63.84,-23.04 92.28,-58.02zm-492.98 67.13l44.36 -48.65 309.57 282.23 -121.36 133.1c-29.56,32.44 -60.95,49.99 -94.14,52.65 -33.14,3.8 -63.15,-6.53 -89.97,-31 -26.84,-24.46 -40.47,-53.9 -40.94,-88.34 -0.71,-33.57 13.72,-66.58 43.3,-99.02l77 -84.47 -127.82 -116.51zm264.92 241.49l-92.43 -84.26 -73.38 80.49c-16.68,18.29 -25.66,36.28 -26.97,53.98 -1.3,17.73 5.44,33.3 20.17,46.73 14.74,13.45 30.74,18.7 47.97,15.8 17.23,-2.93 34.32,-13.68 51.26,-32.25l73.38 -80.49zm-480.18 -10.23l48.88 -50.12 173.81 425.24 -44.3 45.42 -429.47 -163.02 49.29 -50.56 106.3 40.14 138.72 -142.26 -43.22 -104.84zm141.4 339.32l-72.49 -177.66 -106.96 109.67 179.45 67.99zm-583.13 67.44c46.73,-41.74 99.56,-61.65 158.51,-59.74 58.61,2.74 108.91,27.61 150.92,74.61 42,47.01 60.93,99.63 56.82,157.89 -3.57,58.28 -29.15,108.7 -76.75,151.24 -31.83,28.44 -66.33,46.7 -103.53,54.78l-44.26 -49.52c39.9,-6.23 75.33,-23.18 106.27,-50.82 32.73,-29.25 50.27,-64.7 52.61,-106.4 2.31,-41.11 -11.54,-78.48 -41.58,-112.1 -30.04,-33.63 -65.9,-51.61 -107.58,-53.96 -41.43,-2.04 -78.95,11.95 -112.57,41.99 -35.71,31.9 -56.95,68.01 -63.74,108.32l-44.27 -49.54c11.31,-40.06 34.36,-75.63 69.16,-106.73zm93.39 399.25l36.99 47.79 -271.2 209.87 -36.98 -47.79 109.79 -84.98 -219.39 -283.49 52.07 -40.3 219.39 283.49 109.32 -84.6zm-604.13 4.32l54.79 -36.47 232.06 348.76 -149.95 99.78c-36.54,24.32 -71.24,33.75 -104.1,28.29 -33.06,-4.34 -59.68,-21.63 -79.78,-51.84 -20.11,-30.23 -26.22,-62.11 -18.35,-95.63 7.44,-32.74 29.44,-61.28 65.97,-85.59l95.16 -63.32 -95.8 -143.99zm198.58 298.44l-69.29 -104.13 -90.67 60.34c-20.61,13.71 -33.68,28.99 -39.22,45.84 -5.56,16.88 -2.79,33.62 8.25,50.22 11.06,16.61 25.31,25.58 42.71,26.94 17.43,1.34 36.62,-4.96 57.54,-18.88l90.67 -60.34zm-526.81 -93.74c22.91,-12.98 41.67,-19.92 56.28,-20.87l30.68 54.17c-16.88,1.76 -32.45,6.68 -46.69,14.74 -14.57,8.25 -24.57,18.96 -29.95,32.09 -5.06,12.95 -6.61,34.91 -4.64,65.91l288.97 177.46 -64.59 36.57 -219.56 -136.3 22.21 248.09 -61.44 34.8 -27.85 -362.49c-5.66,-71.53 13.2,-119.6 56.6,-144.16zm-349.13 201.84l58.4 -30.36 193.26 371.66 -58.4 30.37 -78.96 -151.85 -73.42 231.09 -74.86 38.93 83.67 -259.36 -304.55 -97.94 79.65 -41.42 267.98 87.29 -92.76 -178.41zm-129.99 463.89l24.01 55.46 -314.67 136.26 -24.03 -55.46 127.41 -55.17 -142.46 -328.94 60.42 -26.17 142.45 328.96 126.86 -54.94zm-580.45 -155.35c24.81,-8.76 44.5,-12.31 59.04,-10.68l20.72 58.69c-16.93,-1.22 -33.11,0.9 -48.53,6.35 -15.8,5.57 -27.51,14.36 -35.12,26.36 -7.25,11.86 -12.62,33.22 -16.11,64.06l253.43 225.34 -69.99 24.7 -192.3 -172.66 -21.58 248.14 -66.58 23.5 36.05 -361.77c6.96,-71.41 33.94,-115.42 80.97,-132.03zm-379.46 136.52l62.78 -19.78 125.93 399.52 -171.78 54.15c-41.87,13.2 -77.82,12.6 -107.87,-1.78 -30.56,-13.36 -51.31,-37.36 -62.21,-71.98 -10.93,-34.64 -7.93,-66.94 8.96,-96.95 16.26,-29.4 45.3,-50.67 87.17,-63.87l109 -34.36 -51.98 -164.96zm107.77 341.89l-37.61 -119.28 -103.88 32.73c-23.59,7.44 -40.4,18.5 -50.41,33.14 -10.03,14.67 -12.02,31.52 -6.04,50.54 6.01,19.02 17.19,31.61 33.54,37.75 16.37,6.13 36.54,5.41 60.51,-2.14l103.88 -32.74zm-411.44 -254.69l68.02 -16.61 -78.08 452.72 -61.62 15.03 -277.74 -365.92 68.6 -16.74 68.85 90.39 193.03 -47.08 18.93 -111.8zm-59.99 362.66l32.72 -189.09 -148.83 36.31 116.12 152.78z"/>
 </g>
</svg>
