<?xml version="1.0" encoding="UTF-8"?>
<!DOCTYPE svg PUBLIC "-//W3C//DTD SVG 1.1//EN" "http://www.w3.org/Graphics/SVG/1.1/DTD/svg11.dtd">
<!-- Creator: CorelDRAW 2019 (64-Bit) -->
<svg xmlns="http://www.w3.org/2000/svg" xml:space="preserve" width="38.8425mm" height="34.6135mm" version="1.1" style="shape-rendering:geometricPrecision; text-rendering:geometricPrecision; image-rendering:optimizeQuality; fill-rule:evenodd; clip-rule:evenodd"
viewBox="0 0 1604.4 1429.72"
 xmlns:xlink="http://www.w3.org/1999/xlink"
 xmlns:xodm="http://www.corel.com/coreldraw/odm/2003">
 <defs>
  <style type="text/css">
   <![CDATA[
    .fil0 {fill:none}
    .fil1 {fill:#FEFEFE;fill-rule:nonzero}
   ]]>
  </style>
 </defs>
 <g id="Слой_x0020_1">
  <metadata id="CorelCorpID_0Corel-Layer"/>
  <path class="fil0" d="M-0 0c310.78,725.42 842.32,1146.97 1557.33,1302.99"/>
  <path class="fil1" d="M1586.2 1309.67l18.2 4.22 -26.84 115.83 -94.15 -21.81 26.84 -115.83 18.2 4.22 -22.97 99.12 57.75 13.38 22.97 -99.12zm-109.02 -25.63l18.08 4.69 -29.86 115.08 -49.49 -12.83c-12.06,-3.13 -20.62,-8.68 -25.68,-16.67 -5.34,-7.81 -6.72,-16.72 -4.13,-26.69 2.59,-9.98 8.17,-17.3 16.76,-21.98 8.33,-4.62 18.53,-5.37 30.59,-2.24l31.4 8.15 12.33 -47.51zm-25.55 98.48l8.91 -34.36 -29.92 -7.76c-6.79,-1.76 -12.5,-1.64 -17.12,0.38 -4.62,2.02 -7.64,5.77 -9.06,11.25 -1.42,5.48 -0.62,10.19 2.38,14.13 3.02,3.94 7.98,6.81 14.88,8.6l29.92 7.77zm-99.15 -103.96c-5.12,-10.42 -13.24,-17.4 -24.35,-20.94 -11.12,-3.54 -21.77,-2.53 -31.97,3.02 -10.27,5.76 -17.29,14.58 -21.07,26.45 -3.81,11.98 -3.16,23.18 1.97,33.6 5.08,10.53 13.18,17.56 24.3,21.1 11.12,3.54 21.79,2.47 32.02,-3.18 10.06,-5.47 17.01,-14.25 20.86,-26.34 3.85,-12.09 3.26,-23.33 -1.75,-33.71zm-65.84 -33.96c14.58,-7.72 30.17,-8.94 46.79,-3.65 16.62,5.29 28.65,15.3 36.08,30.02 7.26,14.9 8.26,30.61 3.01,47.12 -5.29,16.62 -15.16,28.81 -29.63,36.56 -14.61,7.83 -30.22,9.1 -46.84,3.81 -16.62,-5.29 -28.63,-15.34 -36.03,-30.18 -7.44,-14.73 -8.51,-30.39 -3.23,-47.01 5.29,-16.62 15.24,-28.84 29.85,-36.67zm-25.31 -51.85l16.5 6.3 -15.2 39.83 -10.63 -4.06c-9.17,6.56 -17.39,15.24 -24.67,26.04 -7.39,11.12 -14.97,26.83 -22.72,47.14l-5.87 15.39 -73.47 -28.05 36.28 -95.05 -16.03 -6.12 15.2 -39.83 16.51 6.3 -9.09 23.8 84.11 32.11 9.09 -23.8zm-28.38 34.8l-53.95 -20.59 -30.17 79.03 39.04 14.9c7.07,-18.51 14.11,-33.64 21.14,-45.38 7.06,-11.85 15.05,-21.16 23.94,-27.95zm-236.89 13.83c-14.76,-6.66 -24.61,-17.61 -29.53,-32.87 -4.88,-15.36 -3.78,-30.89 3.3,-46.58 7.07,-15.69 17.98,-26.8 32.72,-33.32 14.69,-6.42 29.42,-6.3 44.18,0.35 13.73,6.19 23.28,16.02 28.63,29.48 5.26,13.68 5.48,27.93 0.66,42.78l18.89 8.52 21.22 -47.08 17.03 7.68 -48.86 108.39 -17.03 -7.67 20.59 -45.68 -19.05 -8.58c-7.84,12.99 -18.61,21.86 -32.3,26.61 -13.44,4.75 -26.93,4.07 -40.45,-2.02zm43.49 -96.47c-9.81,-4.42 -19.57,-4.41 -29.27,0.03 -9.85,4.5 -17.5,12.79 -22.95,24.87 -5.49,12.18 -6.61,23.35 -3.37,33.51 2.95,10.27 9.38,17.64 19.29,22.11 9.91,4.47 19.79,4.45 29.64,-0.05 9.71,-4.44 17.28,-12.71 22.72,-24.78 5.4,-11.97 6.6,-23.18 3.59,-33.6 -3.2,-10.26 -9.76,-17.62 -19.66,-22.09zm-117.05 -80.68c15.47,8.76 25.63,21.16 30.48,37.17 4.6,16.01 2.49,31.79 -6.33,47.36 -8.81,15.57 -21.24,25.45 -37.27,29.64 -16,4.35 -31.88,2.06 -47.65,-6.87 -10.54,-5.97 -18.59,-13.58 -24.15,-22.85l9.29 -16.41c5.3,10.16 13.09,18.14 23.33,23.94 10.84,6.14 21.97,7.62 33.39,4.47 11.27,-3.12 20.05,-10.24 26.36,-21.38 6.31,-11.14 7.87,-22.41 4.71,-33.83 -3.22,-11.32 -10.39,-20.14 -21.53,-26.44 -11.83,-6.7 -23.46,-9.12 -34.92,-7.28l9.29 -16.41c11.8,-0.6 23.46,2.35 34.99,8.88zm-65.2 -34.51l13.37 8.72 -64.97 99.57 -15.65 -10.21 47.71 -73.11 -102.47 37.38 -13.66 -8.91 64.97 -99.57 15.65 10.21 -47.89 73.4 102.95 -37.48zm-110.4 -73.53l15.31 10.7 -68.11 97.46 -41.9 -29.29c-10.21,-7.14 -16.3,-15.33 -18.26,-24.58 -2.28,-9.19 -0.47,-18.01 5.43,-26.45 5.9,-8.45 13.69,-13.37 23.37,-14.76 9.43,-1.43 19.24,1.43 29.45,8.57l26.59 18.58 28.12 -40.24zm-58.28 83.4l20.33 -29.1 -25.34 -17.71c-5.75,-4.02 -11.15,-5.89 -16.18,-5.61 -5.03,0.28 -9.17,2.75 -12.41,7.39 -3.24,4.64 -4.14,9.33 -2.69,14.08 1.45,4.74 5.11,9.16 10.95,13.25l25.34 17.71zm-55.49 -134.08c-1.05,-11.57 -6.13,-20.98 -15.25,-28.27 -9.11,-7.28 -19.42,-10.16 -30.93,-8.63 -11.66,1.71 -21.37,7.42 -29.15,17.16 -7.84,9.82 -11.24,20.51 -10.19,32.08 0.98,11.65 6.02,21.12 15.14,28.4 9.11,7.28 19.46,10.11 31.04,8.5 11.35,-1.51 20.99,-7.22 28.9,-17.13 7.92,-9.91 11.39,-20.61 10.43,-32.11zm-49.32 -55.27c16.37,-1.99 31.38,2.45 45,13.34 13.63,10.89 21.27,24.54 22.95,40.95 1.45,16.51 -3.24,31.54 -14.06,45.08 -10.88,13.63 -24.47,21.47 -40.76,23.53 -16.44,2.08 -31.48,-2.32 -45.1,-13.21 -13.63,-10.89 -21.24,-24.58 -22.84,-41.08 -1.67,-16.41 2.93,-31.43 13.82,-45.05 10.88,-13.62 24.55,-21.47 41,-23.56zm-64.29 -81.06l41.93 40.69 -82.8 85.33 -38.77 -37.61c-7.72,-7.49 -12.02,-15.3 -12.9,-23.41 -0.88,-8.12 1.83,-15.42 8.14,-21.93 4.1,-4.22 8.71,-6.85 13.82,-7.89 5.11,-1.04 9.96,-0.59 14.55,1.34 -4.42,-6.18 -6.34,-12.94 -5.77,-20.28 0.57,-7.34 3.82,-14.05 9.73,-20.14 7.02,-7.23 15.26,-10.52 24.71,-9.86 9.38,0.58 18.5,5.16 27.36,13.76zm-9.44 66.81l26.02 -26.82 -26.08 -25.31c-5.2,-5.05 -10.45,-7.81 -15.74,-8.29 -5.3,-0.48 -10.03,1.43 -14.21,5.74 -4.1,4.23 -5.79,8.9 -5.08,14.01 0.72,5.11 3.72,10.24 9,15.36l26.09 25.31zm-32.88 33.89l21.41 -22.06 -23.04 -22.36c-4.47,-4.34 -8.87,-6.75 -13.2,-7.25 -4.33,-0.49 -8.23,1.05 -11.7,4.62 -3.47,3.57 -4.87,7.5 -4.2,11.77 0.66,4.28 3.23,8.58 7.7,12.92l23.04 22.35zm-10.29 -151.18l13.35 14.72 -123.48 41.88 -12.1 -13.33 53.62 -118.85 13.47 14.84 -13.21 29.42 37.9 41.76 30.45 -10.43zm-98.58 34.19l51.59 -17.46 -29.22 -32.2 -22.37 49.67zm5.11 -137.48l11.67 14.59 -92.85 74.27 -11.67 -14.59 36.61 -29.28 -38.73 -48.42 -36.61 29.28 -11.67 -14.59 92.85 -74.27 11.67 14.59 -42.84 34.27 38.73 48.42 42.84 -34.27zm-78.09 -99.14l9.58 12.77 -95.09 71.38 -11.21 -14.94 69.82 -52.41 -109.08 0.11 -9.79 -13.04 95.09 -71.38 11.22 14.94 -70.1 52.61 109.56 -0.05zm-114.09 -165.13l47.86 72.41 -99.19 65.56 -46.64 -70.56 14.31 -9.46 36.34 54.98 24.8 -16.39 -29.6 -44.78 14.32 -9.46 29.6 44.78 31.46 -20.79 -37.56 -56.82 14.31 -9.46z"/>
 </g>
</svg>
