<?xml version="1.0" encoding="UTF-8"?>
<!DOCTYPE svg PUBLIC "-//W3C//DTD SVG 1.1//EN" "http://www.w3.org/Graphics/SVG/1.1/DTD/svg11.dtd">
<!-- Creator: CorelDRAW 2019 (64-Bit) -->
<svg xmlns="http://www.w3.org/2000/svg" xml:space="preserve" width="90.979mm" height="90.9791mm" version="1.1" style="shape-rendering:geometricPrecision; text-rendering:geometricPrecision; image-rendering:optimizeQuality; fill-rule:evenodd; clip-rule:evenodd"
viewBox="0 0 1333.15 1333.15"
 xmlns:xlink="http://www.w3.org/1999/xlink"
 xmlns:xodm="http://www.corel.com/coreldraw/odm/2003">
 <defs>
  <style type="text/css">
   <![CDATA[
    .str1 {stroke:#333333;stroke-width:1.24;stroke-miterlimit:22.9256}
    .str0 {stroke:#4A4A4A;stroke-width:2.48;stroke-miterlimit:22.9256}
    .fil0 {fill:none}
   ]]>
  </style>
 </defs>
 <g id="Слой_x0020_1">
  <metadata id="CorelCorpID_0Corel-Layer"/>
  <g id="_2014482737392">
   <line class="fil0 str0" x1="878.97" y1="1276.89" x2="885.55" y2= "1295.78" />
   <line class="fil0 str0" x1="910.38" y1="1265.05" x2="917.91" y2= "1283.58" />
   <line class="fil0 str0" x1="941.13" y1="1251.61" x2="949.61" y2= "1269.74" />
   <line class="fil0 str0" x1="971.14" y1="1236.61" x2="980.55" y2= "1254.27" />
   <line class="fil0 str0" x1="1000.34" y1="1220.07" x2="1010.65" y2= "1237.21" />
   <line class="fil0 str0" x1="1028.62" y1="1202.02" x2="1039.82" y2= "1218.61" />
   <line class="fil0 str0" x1="1055.93" y1="1182.52" x2="1067.98" y2= "1198.5" />
   <line class="fil0 str0" x1="1082.18" y1="1161.62" x2="1095.04" y2= "1176.94" />
   <line class="fil0 str0" x1="1107.29" y1="1139.38" x2="1120.95" y2= "1154.01" />
   <line class="fil0 str0" x1="1131.22" y1="1115.85" x2="1145.61" y2= "1129.75" />
   <line class="fil0 str0" x1="1153.88" y1="1091.11" x2="1168.99" y2= "1104.24" />
   <line class="fil0 str0" x1="1175.23" y1="1065.23" x2="1191" y2= "1077.55" />
   <line class="fil0 str0" x1="1195.22" y1="1038.27" x2="1211.59" y2= "1049.76" />
   <line class="fil0 str0" x1="1213.77" y1="1010.31" x2="1230.73" y2= "1020.94" />
   <line class="fil0 str0" x1="1230.86" y1="981.42" x2="1248.34" y2= "991.17" />
   <line class="fil0 str0" x1="1246.44" y1="951.7" x2="1264.4" y2= "960.53" />
   <line class="fil0 str0" x1="1260.46" y1="921.21" x2="1278.85" y2= "929.1" />
   <line class="fil0 str0" x1="1272.89" y1="890.04" x2="1291.66" y2= "896.97" />
   <line class="fil0 str0" x1="1283.7" y1="858.27" x2="1302.8" y2= "864.22" />
   <line class="fil0 str0" x1="1292.84" y1="825.98" x2="1312.23" y2= "830.93" />
   <line class="fil0 str0" x1="1300.3" y1="793.26" x2="1319.92" y2= "797.2" />
   <line class="fil0 str0" x1="1306.05" y1="760.21" x2="1325.85" y2= "763.12" />
   <line class="fil0 str0" x1="1310.07" y1="726.89" x2="1330" y2= "728.77" />
   <line class="fil0 str0" x1="1312.35" y1="693.42" x2="1332.34" y2= "694.26" />
   <line class="fil0 str0" x1="1312.87" y1="659.87" x2="1332.88" y2= "659.66" />
   <line class="fil0 str0" x1="1311.64" y1="626.34" x2="1331.61" y2= "625.09" />
   <line class="fil0 str0" x1="1308.66" y1="592.92" x2="1328.53" y2= "590.62" />
   <line class="fil0 str0" x1="1303.93" y1="559.7" x2="1323.66" y2= "556.37" />
   <line class="fil0 str0" x1="1297.48" y1="526.78" x2="1317.01" y2= "522.42" />
   <line class="fil0 str0" x1="1289.34" y1="494.22" x2="1308.62" y2= "488.86" />
   <line class="fil0 str0" x1="1279.52" y1="462.12" x2="1298.5" y2= "455.79" />
   <line class="fil0 str0" x1="1268.09" y1="430.57" x2="1286.72" y2= "423.27" />
   <line class="fil0 str0" x1="1255.05" y1="399.64" x2="1273.28" y2= "391.4" />
   <line class="fil0 str0" x1="1240.44" y1="369.43" x2="1258.22" y2= "360.25" />
   <line class="fil0 str0" x1="1224.28" y1="340.03" x2="1241.55" y2= "329.94" />
   <line class="fil0 str0" x1="1206.6" y1="311.51" x2="1223.33" y2= "300.53" />
   <line class="fil0 str0" x1="1187.46" y1="283.95" x2="1203.59" y2= "272.11" />
   <line class="fil0 str0" x1="1166.91" y1="257.43" x2="1182.4" y2= "244.76" />
   <line class="fil0 str0" x1="1144.99" y1="232.02" x2="1159.8" y2= "218.56" />
   <line class="fil0 str0" x1="1121.78" y1="207.8" x2="1135.86" y2= "193.58" />
   <line class="fil0 str0" x1="1097.34" y1="184.81" x2="1110.66" y2= "169.88" />
   <line class="fil0 str0" x1="1071.73" y1="163.12" x2="1084.26" y2= "147.52" />
   <line class="fil0 str0" x1="1045.03" y1="142.8" x2="1056.74" y2= "126.57" />
   <line class="fil0 str0" x1="1017.32" y1="123.88" x2="1028.16" y2= "107.06" />
   <line class="fil0 str0" x1="988.66" y1="106.42" x2="998.63" y2= "89.06" />
   <line class="fil0 str0" x1="959.14" y1="90.46" x2="968.2" y2= "72.61" />
   <line class="fil0 str0" x1="928.83" y1="76.04" x2="936.96" y2= "57.76" />
   <line class="fil0 str0" x1="897.82" y1="63.21" x2="904.99" y2= "44.53" />
   <line class="fil0 str0" x1="866.2" y1="52" x2="872.39" y2= "32.97" />
   <line class="fil0 str0" x1="834.03" y1="42.43" x2="839.23" y2= "23.11" />
   <line class="fil0 str0" x1="801.41" y1="34.55" x2="805.6" y2= "14.99" />
   <line class="fil0 str0" x1="768.43" y1="28.37" x2="771.6" y2= "8.61" />
   <line class="fil0 str0" x1="735.17" y1="23.92" x2="737.31" y2= "4.02" />
   <line class="fil0 str0" x1="701.73" y1="21.2" x2="702.83" y2= "1.22" />
   <line class="fil0 str0" x1="668.19" y1="20.24" x2="668.24" y2= "0.23" />
   <line class="fil0 str0" x1="634.65" y1="21.03" x2="633.65" y2= "1.05" />
   <line class="fil0 str0" x1="601.19" y1="23.58" x2="599.15" y2= "3.67" />
   <line class="fil0 str0" x1="567.92" y1="27.87" x2="564.84" y2= "8.1" />
   <line class="fil0 str0" x1="534.91" y1="33.89" x2="530.81" y2= "14.31" />
   <line class="fil0 str0" x1="502.25" y1="41.62" x2="497.14" y2= "22.27" />
   <line class="fil0 str0" x1="470.03" y1="51.02" x2="463.94" y2= "31.96" />
   <line class="fil0 str0" x1="438.33" y1="62.05" x2="431.27" y2= "43.33" />
   <line class="fil0 str0" x1="407.24" y1="74.69" x2="399.23" y2= "56.35" />
   <line class="fil0 str0" x1="376.84" y1="88.91" x2="367.9" y2= "71.01" />
   <line class="fil0 str0" x1="347.23" y1="104.69" x2="337.36" y2= "87.28" />
   <line class="fil0 str0" x1="318.48" y1="121.99" x2="307.72" y2= "105.12" />
   <line class="fil0 str0" x1="290.68" y1="140.76" x2="279.05" y2= "124.48" />
   <line class="fil0 str0" x1="263.89" y1="160.97" x2="251.43" y2= "145.32" />
   <line class="fil0 str0" x1="238.2" y1="182.55" x2="224.94" y2= "167.57" />
   <line class="fil0 str0" x1="213.67" y1="205.44" x2="199.64" y2= "191.18" />
   <line class="fil0 str0" x1="190.37" y1="229.59" x2="175.61" y2= "216.07" />
   <line class="fil0 str0" x1="168.35" y1="254.91" x2="152.92" y2= "242.18" />
   <line class="fil0 str0" x1="147.68" y1="281.34" x2="131.6" y2= "269.43" />
   <line class="fil0 str0" x1="128.4" y1="308.81" x2="111.73" y2= "297.75" />
   <line class="fil0 str0" x1="110.57" y1="337.24" x2="93.35" y2= "327.05" />
   <line class="fil0 str0" x1="94.23" y1="366.55" x2="76.51" y2= "357.27" />
   <line class="fil0 str0" x1="79.43" y1="396.67" x2="61.25" y2= "388.31" />
   <line class="fil0 str0" x1="66.2" y1="427.51" x2="47.61" y2= "420.1" />
   <line class="fil0 str0" x1="54.58" y1="458.99" x2="35.63" y2= "452.55" />
   <line class="fil0 str0" x1="44.6" y1="491.03" x2="25.35" y2= "485.58" />
   <line class="fil0 str0" x1="36.29" y1="523.54" x2="16.79" y2= "519.1" />
   <line class="fil0 str0" x1="29.69" y1="556.44" x2="9.97" y2= "553.01" />
   <line class="fil0 str0" x1="24.8" y1="589.64" x2="4.94" y2= "587.24" />
   <line class="fil0 str0" x1="21.65" y1="623.04" x2="1.69" y2= "621.69" />
   <line class="fil0 str0" x1="20.25" y1="656.57" x2="0.24" y2= "656.25" />
   <line class="fil0 str0" x1="20.6" y1="690.12" x2="0.61" y2= "690.85" />
   <line class="fil0 str0" x1="22.71" y1="723.6" x2="2.78" y2= "725.38" />
   <line class="fil0 str0" x1="26.57" y1="756.93" x2="6.76" y2= "759.75" />
   <line class="fil0 str0" x1="32.16" y1="790.02" x2="12.52" y2= "793.86" />
   <line class="fil0 str0" x1="39.46" y1="822.77" x2="20.05" y2= "827.63" />
   <line class="fil0 str0" x1="48.44" y1="855.11" x2="29.31" y2= "860.96" />
   <line class="fil0 str0" x1="59.07" y1="886.95" x2="40.26" y2= "893.76" />
   <line class="fil0 str0" x1="71.31" y1="918.2" x2="52.87" y2= "925.97" />
   <line class="fil0 str0" x1="85.14" y1="948.77" x2="67.13" y2= "957.49" />
   <line class="fil0 str0" x1="100.53" y1="978.59" x2="83" y2= "988.23" />
   <line class="fil0 str0" x1="117.45" y1="1007.56" x2="100.45" y2= "1018.1" />
   <line class="fil0 str0" x1="135.87" y1="1035.61" x2="119.43" y2= "1047.03" />
   <line class="fil0 str0" x1="155.72" y1="1062.66" x2="139.91" y2= "1074.92" />
   <line class="fil0 str0" x1="176.96" y1="1088.63" x2="161.81" y2= "1101.7" />
   <line class="fil0 str0" x1="199.53" y1="1113.46" x2="185.08" y2= "1127.3" />
   <line class="fil0 str0" x1="223.37" y1="1137.07" x2="209.66" y2= "1151.65" />
   <line class="fil0 str0" x1="248.4" y1="1159.42" x2="235.47" y2= "1174.69" />
   <line class="fil0 str0" x1="274.57" y1="1180.43" x2="262.44" y2= "1196.35" />
   <line class="fil0 str0" x1="301.78" y1="1200.06" x2="290.5" y2= "1216.59" />
   <line class="fil0 str0" x1="329.98" y1="1218.26" x2="319.57" y2= "1235.34" />
   <line class="fil0 str0" x1="359.08" y1="1234.97" x2="349.56" y2= "1252.57" />
   <line class="fil0 str0" x1="389" y1="1250.16" x2="380.41" y2= "1268.23" />
   <line class="fil0 str0" x1="419.67" y1="1263.79" x2="412.02" y2= "1282.28" />
   <line class="fil0 str0" x1="451" y1="1275.82" x2="444.31" y2= "1294.68" />
   <line class="fil0 str0" x1="482.91" y1="1286.21" x2="477.2" y2= "1305.39" />
   <line class="fil0 str0" x1="515.31" y1="1294.94" x2="510.61" y2= "1314.39" />
   <line class="fil0 str0" x1="548.12" y1="1301.97" x2="544.43" y2= "1321.64" />
   <line class="fil0 str0" x1="581.25" y1="1307.29" x2="578.59" y2= "1327.12" />
   <line class="fil0 str0" x1="614.61" y1="1310.88" x2="612.99" y2= "1330.82" />
   <line class="fil0 str0" x1="648.11" y1="1312.71" x2="647.54" y2= "1332.72" />
   <line class="fil0 str0" x1="681.67" y1="1312.8" x2="682.14" y2= "1332.8" />
   <line class="fil0 str0" x1="715.17" y1="1311.13" x2="716.69" y2= "1331.08" />
   <line class="fil0 str0" x1="748.55" y1="1307.71" x2="751.11" y2= "1327.56" />
   <line class="fil0 str0" x1="781.71" y1="1302.55" x2="785.3" y2= "1322.23" />
   <line class="fil0 str0" x1="814.55" y1="1295.67" x2="819.16" y2= "1315.15" />
   <line class="fil0 str0" x1="847" y1="1287.11" x2="852.6" y2= "1306.32" />
  </g>
  <circle class="fil0 str1" cx="666.57" cy="666.58" r="665.95"/>
 </g>
</svg>
