<?xml version="1.0" encoding="UTF-8"?>
<!DOCTYPE svg PUBLIC "-//W3C//DTD SVG 1.1//EN" "http://www.w3.org/Graphics/SVG/1.1/DTD/svg11.dtd">
<!-- Creator: CorelDRAW 2019 (64-Bit) -->
<svg xmlns="http://www.w3.org/2000/svg" xml:space="preserve" width="119.203mm" height="119.197mm" version="1.1" style="shape-rendering:geometricPrecision; text-rendering:geometricPrecision; image-rendering:optimizeQuality; fill-rule:evenodd; clip-rule:evenodd"
viewBox="0 0 4004.37 4004.17"
 xmlns:xlink="http://www.w3.org/1999/xlink"
 xmlns:xodm="http://www.corel.com/coreldraw/odm/2003">
 <defs>
  <style type="text/css">
   <![CDATA[
    .str0 {stroke:#4D4D4D;stroke-width:5.69;stroke-miterlimit:22.9256}
    .fil0 {fill:none}
   ]]>
  </style>
 </defs>
 <g id="Слой_x0020_1">
  <metadata id="CorelCorpID_0Corel-Layer"/>
  <path class="fil0 str0" d="M2640.43 3836.08l19.76 56.78m-115.83 -26.06l16.84 57.72m-114.34 -31.98l13.84 58.51m-112.54 -37.85l10.79 59.15m-110.42 -43.64l7.69 59.63m-107.98 -49.35l4.56 59.95m-105.25 -54.93l1.42 60.11m-102.24 -60.37l-1.73 60.1m-98.94 -65.63l-4.86 59.93m-95.38 -70.7l-7.98 59.59m-91.57 -75.57l-11.07 59.09m-87.51 -80.23l-14.12 58.44m-83.24 -84.66l-17.13 57.63m-78.74 -88.85l-20.09 56.67m-74.05 -92.81l-22.99 55.55m-69.16 -96.51l-25.83 54.3m-64.09 -99.94l-28.59 52.89m-58.84 -103.12l-31.29 51.34m-53.44 -106.02l-33.9 49.66m-47.89 -108.64l-36.42 47.84m-42.19 -110.98l-38.85 45.88m-36.37 -113.01l-41.19 43.8m-30.44 -114.76l-43.42 41.59m-24.41 -116.19l-45.53 39.27m-18.3 -117.31l-47.52 36.83m-12.14 -118.1l-49.38 34.3m-5.94 -118.58l-51.1 31.67m0.26 -118.72l-52.69 28.96m6.44 -118.55l-54.12 26.18m12.57 -118.06l-55.4 23.35m18.63 -117.26l-56.53 20.48m24.59 -116.15l-57.5 17.58m30.5 -114.74l-58.32 14.6m36.38 -113.02l-59 11.56m42.21 -110.97l-59.53 8.47m47.94 -108.62l-59.89 5.35m53.55 -105.97l-60.08 2.21m59.02 -103.02l-60.12 -0.94m64.33 -99.79l-59.98 -4.08m69.45 -96.29l-59.69 -7.21m74.38 -92.54l-59.23 -10.3m79.08 -88.55l-58.62 -13.36m83.57 -84.33l-57.85 -16.39m87.83 -79.89l-56.92 -19.36m91.84 -75.24l-55.85 -22.27m95.61 -70.4l-54.63 -25.12m99.11 -65.37l-53.25 -27.91m102.35 -60.17l-51.74 -30.62m105.32 -54.8l-50.09 -33.25m108.01 -49.29l-48.31 -35.8m110.42 -43.63l-46.38 -38.26m112.53 -37.84l-44.33 -40.61m114.35 -31.93l-42.16 -42.87m115.86 -25.92l-39.86 -45.01m117.05 -19.83l-37.45 -47.03m117.93 -13.69l-34.94 -48.93m118.49 -7.49l-32.33 -50.69m118.71 -1.29l-29.65 -52.31m118.63 4.9l-26.88 -53.78m118.22 11.04l-24.06 -55.1m117.48 17.13l-21.2 -56.26m116.46 23.11l-18.31 -57.27m115.12 29.02l-15.35 -58.13m113.48 34.92l-12.32 -58.84m111.51 40.75l-9.24 -59.41m109.23 46.52l-6.13 -59.81m106.66 52.16l-2.99 -60.05m103.78 57.67l0.15 -60.12m100.62 63.02l3.3 -60.03m97.2 68.19l6.43 -59.78m93.5 73.16l9.53 -59.37m89.57 77.94l12.6 -58.79m85.4 82.48l15.63 -58.06m81.02 86.79l18.62 -57.17m76.42 90.86l21.55 -56.13m71.63 94.68l24.42 -54.94m66.64 98.26l27.22 -53.61m61.49 101.56l29.95 -52.13m56.16 104.6l32.6 -50.52m50.68 107.37l35.17 -48.76m45.05 109.85l37.65 -46.88m39.29 112.03l40.03 -44.86m33.41 113.93l42.32 -42.71m27.43 115.51l44.49 -40.45m21.36 116.79l46.54 -38.07m15.22 117.75l48.47 -35.58m9.04 118.38l50.26 -32.99m2.84 118.69l51.92 -30.32m-3.36 118.68l53.43 -27.58m-9.51 118.35l54.78 -24.77m-15.61 117.7l55.98 -21.92m-21.62 116.74l57.03 -19.04m-27.55 115.49l57.93 -16.1m-33.45 113.92l58.68 -13.08m-39.3 112.03l59.28 -10.02m-45.09 109.83l59.72 -6.91m-50.75 107.33l60 -3.78m-56.31 104.53l60.12 -0.63m-61.69 101.44l60.07 2.51m-66.91 98.07l59.86 5.65m-71.94 94.45l59.48 8.76m-76.76 90.57l58.95 11.84m-81.36 86.47l58.25 14.88m-85.73 82.13l57.4 17.88m-89.87 77.59l56.41 20.82m-93.75 72.84l55.25 23.71m-97.39 67.9l53.95 26.52m-100.76 62.8l52.52 29.27m-103.87 57.51l50.94 31.94m-106.7 52.06l49.21 34.54m-109.25 46.48l47.36 37.04m-111.51 40.74l45.37 39.45m-113.48 34.9l43.26 41.76m-115.14 28.93l41.02 43.95m-116.5 22.89l38.67 46.04m-117.53 16.76l36.21 48m-118.25 10.59l33.65 49.82m-118.64 4.39l31 51.51m-118.72 -1.81l28.27 53.06m-118.46 -7.98l25.48 54.46m-117.88 -14.09l22.64 55.7"/>
 </g>
</svg>
